<svg xmlns="http://www.w3.org/2000/svg" width="104.005" height="15.214" viewBox="0 0 104.005 15.214">
  <defs>
    <style>
      .cls-1 {
        fill: #fff;
      }
    </style>
  </defs>
  <g id="Group_540" data-name="Group 540" transform="translate(-1046.428 -872.54)">
    <g id="Group_538" data-name="Group 538" transform="translate(1046.428 872.54)">
      <path id="Path_744" data-name="Path 744" class="cls-1" d="M1148.36,886.585a4.6,4.6,0,0,1,1.648,2.65h-2.12a2.773,2.773,0,0,0-1.024-1.289,2.9,2.9,0,0,0-1.669-.473,2.635,2.635,0,0,0-2.449,1.547,4.408,4.408,0,0,0,0,3.481,2.638,2.638,0,0,0,2.449,1.547,2.9,2.9,0,0,0,1.669-.473,2.776,2.776,0,0,0,1.024-1.289h2.12a4.6,4.6,0,0,1-1.648,2.65,5.449,5.449,0,0,1-5.694.322,4.434,4.434,0,0,1-1.719-1.826,6.165,6.165,0,0,1,0-5.344,4.452,4.452,0,0,1,1.712-1.827,5.464,5.464,0,0,1,5.7.323Z" transform="translate(-1140.338 -884.508)"/>
      <path id="Path_745" data-name="Path 745" class="cls-1" d="M1175.687,892.163a2.575,2.575,0,0,1,1.017,1.275v-1.648h2.006v7.937H1176.7v-1.662a2.612,2.612,0,0,1-1.017,1.282,3.015,3.015,0,0,1-1.719.48,3.406,3.406,0,0,1-1.805-.487,3.286,3.286,0,0,1-1.254-1.411,5.443,5.443,0,0,1,0-4.341,3.293,3.293,0,0,1,1.254-1.412,3.411,3.411,0,0,1,1.805-.487A3.053,3.053,0,0,1,1175.687,892.163Zm-2.608,1.906a2.385,2.385,0,0,0-.573,1.69,2.36,2.36,0,0,0,.573,1.684,2.171,2.171,0,0,0,3.03-.014,2.66,2.66,0,0,0,0-3.352,2,2,0,0,0-1.511-.623A1.977,1.977,0,0,0,1173.079,894.069Z" transform="translate(-1159.671 -888.411)"/>
      <path id="Path_746" data-name="Path 746" class="cls-1" d="M1201.812,892.088a3.116,3.116,0,0,1,1.633-.437v2.163h-.587q-2.221,0-2.22,2.063V899.7h-2.021v-7.937h2.021v1.519A3.316,3.316,0,0,1,1201.812,892.088Z" transform="translate(-1177.745 -888.385)"/>
      <path id="Path_747" data-name="Path 747" class="cls-1" d="M1219.327,892.163a2.575,2.575,0,0,1,1.017,1.275v-1.648h2.006v7.966a4.41,4.41,0,0,1-.437,1.984,3.223,3.223,0,0,1-1.3,1.382,4.127,4.127,0,0,1-2.1.5,4.43,4.43,0,0,1-2.779-.816,3.376,3.376,0,0,1-1.289-2.22h1.991a1.644,1.644,0,0,0,.667.938,2.206,2.206,0,0,0,1.268.337,1.983,1.983,0,0,0,1.432-.523,2.1,2.1,0,0,0,.544-1.583v-1.69a2.613,2.613,0,0,1-1.017,1.282,3.015,3.015,0,0,1-1.719.48,3.406,3.406,0,0,1-1.8-.487,3.285,3.285,0,0,1-1.254-1.411,5.448,5.448,0,0,1,0-4.341,3.292,3.292,0,0,1,1.254-1.412,3.41,3.41,0,0,1,1.8-.487A3.053,3.053,0,0,1,1219.327,892.163Zm-2.607,1.906a2.384,2.384,0,0,0-.573,1.69,2.359,2.359,0,0,0,.573,1.684,2.171,2.171,0,0,0,3.03-.014,2.659,2.659,0,0,0,0-3.352,2,2,0,0,0-1.511-.623A1.975,1.975,0,0,0,1216.72,894.069Z" transform="translate(-1187.681 -888.411)"/>
      <path id="Path_748" data-name="Path 748" class="cls-1" d="M1247.291,892.178a3.567,3.567,0,0,1,1.454,1.412,4.693,4.693,0,0,1,0,4.333,3.622,3.622,0,0,1-1.454,1.411,4.642,4.642,0,0,1-4.168,0,3.623,3.623,0,0,1-1.454-1.411,4.7,4.7,0,0,1,0-4.333,3.569,3.569,0,0,1,1.454-1.412,4.707,4.707,0,0,1,4.168,0Zm-3.517,1.856a2.831,2.831,0,0,0,0,3.453,2.023,2.023,0,0,0,2.865,0,2.829,2.829,0,0,0,0-3.453,2.023,2.023,0,0,0-2.865,0Z" transform="translate(-1205.037 -888.411)"/>
      <path id="Path_749" data-name="Path 749" class="cls-1" d="M1276.123,893.583a4.387,4.387,0,0,1-1.827,1.784,5.966,5.966,0,0,1-2.844.638h-3.6V885.89h3.6a6.077,6.077,0,0,1,2.844.624,4.314,4.314,0,0,1,1.827,1.762,5.9,5.9,0,0,1,0,5.308Zm-2.314-.244a3.7,3.7,0,0,0,0-4.828,3.505,3.505,0,0,0-2.529-.86h-1.4V894.2h1.4A3.5,3.5,0,0,0,1273.809,893.34Z" transform="translate(-1222.186 -884.687)"/>
      <path id="Path_750" data-name="Path 750" class="cls-1" d="M1303.611,896.146h-5.816a2.188,2.188,0,0,0,.573,1.562,1.843,1.843,0,0,0,1.318.5,1.91,1.91,0,0,0,1.167-.344,1.522,1.522,0,0,0,.595-.931h2.135a3.417,3.417,0,0,1-.673,1.49,3.525,3.525,0,0,1-1.325,1.032,4.54,4.54,0,0,1-3.861-.122,3.472,3.472,0,0,1-1.4-1.411,4.933,4.933,0,0,1,0-4.333,3.421,3.421,0,0,1,1.4-1.412,4.277,4.277,0,0,1,2.063-.487,4.186,4.186,0,0,1,2.056.487,3.441,3.441,0,0,1,1.361,1.34,3.924,3.924,0,0,1,.408,2.629Zm-2.471-2.364a1.939,1.939,0,0,0-1.354-.5,1.983,1.983,0,0,0-1.375.5,2.052,2.052,0,0,0-.616,1.475h3.854A1.782,1.782,0,0,0,1301.139,893.783Z" transform="translate(-1240.133 -888.411)"/>
      <path id="Path_751" data-name="Path 751" class="cls-1" d="M1323.8,884.531v10.6h-2.02v-10.6Z" transform="translate(-1256.795 -883.815)"/>
      <path id="Path_752" data-name="Path 752" class="cls-1" d="M1332.24,882.839a1.478,1.478,0,0,1,1.805,0,1.02,1.02,0,0,1,.344.8,1,1,0,0,1-.344.781,1.477,1.477,0,0,1-1.805,0,1,1,0,0,1-.344-.781A1.022,1.022,0,0,1,1332.24,882.839Zm1.906,3.073v7.937h-2.02v-7.937Z" transform="translate(-1263.29 -882.531)"/>
      <path id="Path_753" data-name="Path 753" class="cls-1" d="M1345.44,897.887l2.005-5.917h2.149l-2.937,7.937h-2.464l-2.937-7.937h2.163Z" transform="translate(-1269.298 -888.589)"/>
      <path id="Path_754" data-name="Path 754" class="cls-1" d="M1374.33,896.146h-5.816a2.191,2.191,0,0,0,.573,1.562,1.844,1.844,0,0,0,1.318.5,1.909,1.909,0,0,0,1.167-.344,1.522,1.522,0,0,0,.595-.931h2.134a3.415,3.415,0,0,1-.673,1.49,3.526,3.526,0,0,1-1.325,1.032,4.541,4.541,0,0,1-3.861-.122,3.474,3.474,0,0,1-1.4-1.411,4.932,4.932,0,0,1,0-4.333,3.423,3.423,0,0,1,1.4-1.412,4.279,4.279,0,0,1,2.063-.487,4.184,4.184,0,0,1,2.056.487,3.44,3.44,0,0,1,1.361,1.34,3.887,3.887,0,0,1,.48,1.941A3.838,3.838,0,0,1,1374.33,896.146Zm-2.471-2.364a1.939,1.939,0,0,0-1.354-.5,1.983,1.983,0,0,0-1.375.5,2.052,2.052,0,0,0-.616,1.475h3.854A1.779,1.779,0,0,0,1371.858,893.783Z" transform="translate(-1285.524 -888.411)"/>
      <path id="Path_755" data-name="Path 755" class="cls-1" d="M1395.69,892.088a3.116,3.116,0,0,1,1.633-.437v2.163h-.587q-2.221,0-2.22,2.063V899.7h-2.021v-7.937h2.021v1.519A3.316,3.316,0,0,1,1395.69,892.088Z" transform="translate(-1302.186 -888.385)"/>
      <path id="Path_756" data-name="Path 756" class="cls-1" d="M1408.865,891.97l2.163,5.386,2.005-5.386h2.22l-4.856,11.719h-2.234l1.791-4.011-3.338-7.708Z" transform="translate(-1311.249 -888.589)"/>
    </g>
  </g>
</svg>
